<mxfile host="app.diagrams.net" agent="Mozilla/5.0 (Windows NT 10.0; Win64; x64) AppleWebKit/537.36 (KHTML, like Gecko) Chrome/141.0.0.0 Safari/537.36" version="28.2.8">
  <diagram name="Page-1" id="UruAZfTR8P_PdSHk1XmN">
    <mxGraphModel dx="3303" dy="1923" grid="1" gridSize="10" guides="1" tooltips="1" connect="1" arrows="1" fold="1" page="1" pageScale="1" pageWidth="850" pageHeight="1100" math="0" shadow="0">
      <root>
        <mxCell id="0" />
        <mxCell id="1" parent="0" />
        <mxCell id="FSeOBKPeejeApxrKlxKV-1" value="trx_eazy_experience" style="swimlane;fontStyle=0;childLayout=stackLayout;horizontal=1;startSize=26;horizontalStack=0;resizeParent=1;resizeParentMax=0;resizeLast=0;collapsible=1;marginBottom=0;align=center;fontSize=14;" parent="1" vertex="1">
          <mxGeometry x="-80" width="191" height="356" as="geometry" />
        </mxCell>
        <mxCell id="FSeOBKPeejeApxrKlxKV-2" value="(pk bigint) id&amp;nbsp;" style="text;strokeColor=none;fillColor=none;spacingLeft=4;spacingRight=4;overflow=hidden;rotatable=0;points=[[0,0.5],[1,0.5]];portConstraint=eastwest;fontSize=12;whiteSpace=wrap;html=1;" parent="FSeOBKPeejeApxrKlxKV-1" vertex="1">
          <mxGeometry y="26" width="191" height="30" as="geometry" />
        </mxCell>
        <mxCell id="FSeOBKPeejeApxrKlxKV-3" value="(bigint) formable_id" style="text;strokeColor=none;fillColor=none;spacingLeft=4;spacingRight=4;overflow=hidden;rotatable=0;points=[[0,0.5],[1,0.5]];portConstraint=eastwest;fontSize=12;whiteSpace=wrap;html=1;" parent="FSeOBKPeejeApxrKlxKV-1" vertex="1">
          <mxGeometry y="56" width="191" height="30" as="geometry" />
        </mxCell>
        <mxCell id="N8BgexTbilIl0n5U3Q86-2" value="(string) formable_type" style="text;strokeColor=none;fillColor=none;spacingLeft=4;spacingRight=4;overflow=hidden;rotatable=0;points=[[0,0.5],[1,0.5]];portConstraint=eastwest;fontSize=12;whiteSpace=wrap;html=1;" vertex="1" parent="FSeOBKPeejeApxrKlxKV-1">
          <mxGeometry y="86" width="191" height="30" as="geometry" />
        </mxCell>
        <mxCell id="N8BgexTbilIl0n5U3Q86-18" value="(int) mtd_eazy_experience_id" style="text;strokeColor=none;fillColor=none;spacingLeft=4;spacingRight=4;overflow=hidden;rotatable=0;points=[[0,0.5],[1,0.5]];portConstraint=eastwest;fontSize=12;whiteSpace=wrap;html=1;" vertex="1" parent="FSeOBKPeejeApxrKlxKV-1">
          <mxGeometry y="116" width="191" height="30" as="geometry" />
        </mxCell>
        <mxCell id="N8BgexTbilIl0n5U3Q86-4" value="(int) requested_by" style="text;strokeColor=none;fillColor=none;spacingLeft=4;spacingRight=4;overflow=hidden;rotatable=0;points=[[0,0.5],[1,0.5]];portConstraint=eastwest;fontSize=12;whiteSpace=wrap;html=1;" vertex="1" parent="FSeOBKPeejeApxrKlxKV-1">
          <mxGeometry y="146" width="191" height="30" as="geometry" />
        </mxCell>
        <mxCell id="N8BgexTbilIl0n5U3Q86-6" value="(string) status" style="text;strokeColor=none;fillColor=none;spacingLeft=4;spacingRight=4;overflow=hidden;rotatable=0;points=[[0,0.5],[1,0.5]];portConstraint=eastwest;fontSize=12;whiteSpace=wrap;html=1;" vertex="1" parent="FSeOBKPeejeApxrKlxKV-1">
          <mxGeometry y="176" width="191" height="30" as="geometry" />
        </mxCell>
        <mxCell id="N8BgexTbilIl0n5U3Q86-7" value="(text) remarks" style="text;strokeColor=none;fillColor=none;spacingLeft=4;spacingRight=4;overflow=hidden;rotatable=0;points=[[0,0.5],[1,0.5]];portConstraint=eastwest;fontSize=12;whiteSpace=wrap;html=1;" vertex="1" parent="FSeOBKPeejeApxrKlxKV-1">
          <mxGeometry y="206" width="191" height="30" as="geometry" />
        </mxCell>
        <mxCell id="N8BgexTbilIl0n5U3Q86-5" value="(datetime) requested_date" style="text;strokeColor=none;fillColor=none;spacingLeft=4;spacingRight=4;overflow=hidden;rotatable=0;points=[[0,0.5],[1,0.5]];portConstraint=eastwest;fontSize=12;whiteSpace=wrap;html=1;" vertex="1" parent="FSeOBKPeejeApxrKlxKV-1">
          <mxGeometry y="236" width="191" height="30" as="geometry" />
        </mxCell>
        <mxCell id="N8BgexTbilIl0n5U3Q86-11" value="(int) approved_by" style="text;strokeColor=none;fillColor=none;spacingLeft=4;spacingRight=4;overflow=hidden;rotatable=0;points=[[0,0.5],[1,0.5]];portConstraint=eastwest;fontSize=12;whiteSpace=wrap;html=1;" vertex="1" parent="FSeOBKPeejeApxrKlxKV-1">
          <mxGeometry y="266" width="191" height="30" as="geometry" />
        </mxCell>
        <mxCell id="N8BgexTbilIl0n5U3Q86-8" value="(datetime) created_at" style="text;strokeColor=none;fillColor=none;spacingLeft=4;spacingRight=4;overflow=hidden;rotatable=0;points=[[0,0.5],[1,0.5]];portConstraint=eastwest;fontSize=12;whiteSpace=wrap;html=1;" vertex="1" parent="FSeOBKPeejeApxrKlxKV-1">
          <mxGeometry y="296" width="191" height="30" as="geometry" />
        </mxCell>
        <mxCell id="N8BgexTbilIl0n5U3Q86-9" value="(datetime) updated_at" style="text;strokeColor=none;fillColor=none;spacingLeft=4;spacingRight=4;overflow=hidden;rotatable=0;points=[[0,0.5],[1,0.5]];portConstraint=eastwest;fontSize=12;whiteSpace=wrap;html=1;" vertex="1" parent="FSeOBKPeejeApxrKlxKV-1">
          <mxGeometry y="326" width="191" height="30" as="geometry" />
        </mxCell>
        <mxCell id="N8BgexTbilIl0n5U3Q86-19" value="mtd_eazy_experience" style="swimlane;fontStyle=0;childLayout=stackLayout;horizontal=1;startSize=26;horizontalStack=0;resizeParent=1;resizeParentMax=0;resizeLast=0;collapsible=1;marginBottom=0;align=center;fontSize=14;" vertex="1" parent="1">
          <mxGeometry x="-360" width="160" height="502" as="geometry" />
        </mxCell>
        <mxCell id="N8BgexTbilIl0n5U3Q86-20" value="(pk int) id" style="text;strokeColor=none;fillColor=none;spacingLeft=4;spacingRight=4;overflow=hidden;rotatable=0;points=[[0,0.5],[1,0.5]];portConstraint=eastwest;fontSize=12;whiteSpace=wrap;html=1;" vertex="1" parent="N8BgexTbilIl0n5U3Q86-19">
          <mxGeometry y="26" width="160" height="30" as="geometry" />
        </mxCell>
        <mxCell id="N8BgexTbilIl0n5U3Q86-21" value="(unique int) year&amp;nbsp;" style="text;strokeColor=none;fillColor=none;spacingLeft=4;spacingRight=4;overflow=hidden;rotatable=0;points=[[0,0.5],[1,0.5]];portConstraint=eastwest;fontSize=12;whiteSpace=wrap;html=1;" vertex="1" parent="N8BgexTbilIl0n5U3Q86-19">
          <mxGeometry y="56" width="160" height="30" as="geometry" />
        </mxCell>
        <mxCell id="N8BgexTbilIl0n5U3Q86-22" value="(float)&lt;span style=&quot;background-color: transparent; color: light-dark(rgb(0, 0, 0), rgb(255, 255, 255));&quot;&gt;&amp;nbsp;budget_home&lt;/span&gt;" style="text;strokeColor=none;fillColor=none;spacingLeft=4;spacingRight=4;overflow=hidden;rotatable=0;points=[[0,0.5],[1,0.5]];portConstraint=eastwest;fontSize=12;whiteSpace=wrap;html=1;" vertex="1" parent="N8BgexTbilIl0n5U3Q86-19">
          <mxGeometry y="86" width="160" height="30" as="geometry" />
        </mxCell>
        <mxCell id="N8BgexTbilIl0n5U3Q86-25" value="(float) budget_edu" style="text;strokeColor=none;fillColor=none;spacingLeft=4;spacingRight=4;overflow=hidden;rotatable=0;points=[[0,0.5],[1,0.5]];portConstraint=eastwest;fontSize=12;whiteSpace=wrap;html=1;" vertex="1" parent="N8BgexTbilIl0n5U3Q86-19">
          <mxGeometry y="116" width="160" height="30" as="geometry" />
        </mxCell>
        <mxCell id="N8BgexTbilIl0n5U3Q86-28" value="(float) budget_umrah" style="text;strokeColor=none;fillColor=none;spacingLeft=4;spacingRight=4;overflow=hidden;rotatable=0;points=[[0,0.5],[1,0.5]];portConstraint=eastwest;fontSize=12;whiteSpace=wrap;html=1;" vertex="1" parent="N8BgexTbilIl0n5U3Q86-19">
          <mxGeometry y="146" width="160" height="30" as="geometry" />
        </mxCell>
        <mxCell id="N8BgexTbilIl0n5U3Q86-29" value="(float) budget_hajj" style="text;strokeColor=none;fillColor=none;spacingLeft=4;spacingRight=4;overflow=hidden;rotatable=0;points=[[0,0.5],[1,0.5]];portConstraint=eastwest;fontSize=12;whiteSpace=wrap;html=1;" vertex="1" parent="N8BgexTbilIl0n5U3Q86-19">
          <mxGeometry y="176" width="160" height="30" as="geometry" />
        </mxCell>
        <mxCell id="N8BgexTbilIl0n5U3Q86-30" value="(float) budget_pilgrimage" style="text;strokeColor=none;fillColor=none;spacingLeft=4;spacingRight=4;overflow=hidden;rotatable=0;points=[[0,0.5],[1,0.5]];portConstraint=eastwest;fontSize=12;whiteSpace=wrap;html=1;" vertex="1" parent="N8BgexTbilIl0n5U3Q86-19">
          <mxGeometry y="206" width="160" height="30" as="geometry" />
        </mxCell>
        <mxCell id="N8BgexTbilIl0n5U3Q86-31" value="(float) budget_cop" style="text;strokeColor=none;fillColor=none;spacingLeft=4;spacingRight=4;overflow=hidden;rotatable=0;points=[[0,0.5],[1,0.5]];portConstraint=eastwest;fontSize=12;whiteSpace=wrap;html=1;" vertex="1" parent="N8BgexTbilIl0n5U3Q86-19">
          <mxGeometry y="236" width="160" height="30" as="geometry" />
        </mxCell>
        <mxCell id="N8BgexTbilIl0n5U3Q86-32" value="(json) home_conifg" style="text;strokeColor=none;fillColor=none;spacingLeft=4;spacingRight=4;overflow=hidden;rotatable=0;points=[[0,0.5],[1,0.5]];portConstraint=eastwest;fontSize=12;whiteSpace=wrap;html=1;" vertex="1" parent="N8BgexTbilIl0n5U3Q86-19">
          <mxGeometry y="266" width="160" height="26" as="geometry" />
        </mxCell>
        <mxCell id="N8BgexTbilIl0n5U3Q86-24" value="(json) edu_config" style="text;strokeColor=none;fillColor=none;spacingLeft=4;spacingRight=4;overflow=hidden;rotatable=0;points=[[0,0.5],[1,0.5]];portConstraint=eastwest;fontSize=12;whiteSpace=wrap;html=1;" vertex="1" parent="N8BgexTbilIl0n5U3Q86-19">
          <mxGeometry y="292" width="160" height="30" as="geometry" />
        </mxCell>
        <mxCell id="N8BgexTbilIl0n5U3Q86-23" value="(json) umrah_config" style="text;strokeColor=none;fillColor=none;spacingLeft=4;spacingRight=4;overflow=hidden;rotatable=0;points=[[0,0.5],[1,0.5]];portConstraint=eastwest;fontSize=12;whiteSpace=wrap;html=1;" vertex="1" parent="N8BgexTbilIl0n5U3Q86-19">
          <mxGeometry y="322" width="160" height="30" as="geometry" />
        </mxCell>
        <mxCell id="N8BgexTbilIl0n5U3Q86-33" value="(json) hajj_config" style="text;strokeColor=none;fillColor=none;spacingLeft=4;spacingRight=4;overflow=hidden;rotatable=0;points=[[0,0.5],[1,0.5]];portConstraint=eastwest;fontSize=12;whiteSpace=wrap;html=1;" vertex="1" parent="N8BgexTbilIl0n5U3Q86-19">
          <mxGeometry y="352" width="160" height="30" as="geometry" />
        </mxCell>
        <mxCell id="N8BgexTbilIl0n5U3Q86-34" value="(json) pilgrimage_config" style="text;strokeColor=none;fillColor=none;spacingLeft=4;spacingRight=4;overflow=hidden;rotatable=0;points=[[0,0.5],[1,0.5]];portConstraint=eastwest;fontSize=12;whiteSpace=wrap;html=1;" vertex="1" parent="N8BgexTbilIl0n5U3Q86-19">
          <mxGeometry y="382" width="160" height="30" as="geometry" />
        </mxCell>
        <mxCell id="N8BgexTbilIl0n5U3Q86-35" value="(json) cop&lt;span style=&quot;background-color: transparent; color: light-dark(rgb(0, 0, 0), rgb(255, 255, 255));&quot;&gt;_config&lt;/span&gt;" style="text;strokeColor=none;fillColor=none;spacingLeft=4;spacingRight=4;overflow=hidden;rotatable=0;points=[[0,0.5],[1,0.5]];portConstraint=eastwest;fontSize=12;whiteSpace=wrap;html=1;" vertex="1" parent="N8BgexTbilIl0n5U3Q86-19">
          <mxGeometry y="412" width="160" height="30" as="geometry" />
        </mxCell>
        <mxCell id="N8BgexTbilIl0n5U3Q86-39" value="created_at" style="text;strokeColor=none;fillColor=none;spacingLeft=4;spacingRight=4;overflow=hidden;rotatable=0;points=[[0,0.5],[1,0.5]];portConstraint=eastwest;fontSize=12;whiteSpace=wrap;html=1;" vertex="1" parent="N8BgexTbilIl0n5U3Q86-19">
          <mxGeometry y="442" width="160" height="30" as="geometry" />
        </mxCell>
        <mxCell id="N8BgexTbilIl0n5U3Q86-40" value="updated_at" style="text;strokeColor=none;fillColor=none;spacingLeft=4;spacingRight=4;overflow=hidden;rotatable=0;points=[[0,0.5],[1,0.5]];portConstraint=eastwest;fontSize=12;whiteSpace=wrap;html=1;" vertex="1" parent="N8BgexTbilIl0n5U3Q86-19">
          <mxGeometry y="472" width="160" height="30" as="geometry" />
        </mxCell>
        <mxCell id="N8BgexTbilIl0n5U3Q86-37" value="" style="edgeStyle=entityRelationEdgeStyle;fontSize=12;html=1;endArrow=ERoneToMany;rounded=0;exitX=1;exitY=0.5;exitDx=0;exitDy=0;entryX=0;entryY=0.5;entryDx=0;entryDy=0;" edge="1" parent="1" source="N8BgexTbilIl0n5U3Q86-20" target="N8BgexTbilIl0n5U3Q86-18">
          <mxGeometry width="100" height="100" relative="1" as="geometry">
            <mxPoint x="320" y="330" as="sourcePoint" />
            <mxPoint x="280" y="230" as="targetPoint" />
          </mxGeometry>
        </mxCell>
        <mxCell id="N8BgexTbilIl0n5U3Q86-41" value="mtd_installment_limit" style="swimlane;fontStyle=0;childLayout=stackLayout;horizontal=1;startSize=26;horizontalStack=0;resizeParent=1;resizeParentMax=0;resizeLast=0;collapsible=1;marginBottom=0;align=center;fontSize=14;" vertex="1" parent="1">
          <mxGeometry x="-640" width="160" height="206" as="geometry" />
        </mxCell>
        <mxCell id="N8BgexTbilIl0n5U3Q86-42" value="(pk int) personnel_number" style="text;strokeColor=none;fillColor=none;spacingLeft=4;spacingRight=4;overflow=hidden;rotatable=0;points=[[0,0.5],[1,0.5]];portConstraint=eastwest;fontSize=12;whiteSpace=wrap;html=1;" vertex="1" parent="N8BgexTbilIl0n5U3Q86-41">
          <mxGeometry y="26" width="160" height="30" as="geometry" />
        </mxCell>
        <mxCell id="N8BgexTbilIl0n5U3Q86-43" value="(float) limit" style="text;strokeColor=none;fillColor=none;spacingLeft=4;spacingRight=4;overflow=hidden;rotatable=0;points=[[0,0.5],[1,0.5]];portConstraint=eastwest;fontSize=12;whiteSpace=wrap;html=1;" vertex="1" parent="N8BgexTbilIl0n5U3Q86-41">
          <mxGeometry y="56" width="160" height="30" as="geometry" />
        </mxCell>
        <mxCell id="N8BgexTbilIl0n5U3Q86-44" value="(datetime) created_at" style="text;strokeColor=none;fillColor=none;spacingLeft=4;spacingRight=4;overflow=hidden;rotatable=0;points=[[0,0.5],[1,0.5]];portConstraint=eastwest;fontSize=12;whiteSpace=wrap;html=1;" vertex="1" parent="N8BgexTbilIl0n5U3Q86-41">
          <mxGeometry y="86" width="160" height="30" as="geometry" />
        </mxCell>
        <mxCell id="N8BgexTbilIl0n5U3Q86-45" value="(datetime) updated_at" style="text;strokeColor=none;fillColor=none;spacingLeft=4;spacingRight=4;overflow=hidden;rotatable=0;points=[[0,0.5],[1,0.5]];portConstraint=eastwest;fontSize=12;whiteSpace=wrap;html=1;" vertex="1" parent="N8BgexTbilIl0n5U3Q86-41">
          <mxGeometry y="116" width="160" height="30" as="geometry" />
        </mxCell>
        <mxCell id="N8BgexTbilIl0n5U3Q86-46" value="(datetime) updated_by" style="text;strokeColor=none;fillColor=none;spacingLeft=4;spacingRight=4;overflow=hidden;rotatable=0;points=[[0,0.5],[1,0.5]];portConstraint=eastwest;fontSize=12;whiteSpace=wrap;html=1;" vertex="1" parent="N8BgexTbilIl0n5U3Q86-41">
          <mxGeometry y="146" width="160" height="30" as="geometry" />
        </mxCell>
        <mxCell id="N8BgexTbilIl0n5U3Q86-66" value="can_be_accelerated" style="text;strokeColor=none;fillColor=none;spacingLeft=4;spacingRight=4;overflow=hidden;rotatable=0;points=[[0,0.5],[1,0.5]];portConstraint=eastwest;fontSize=12;whiteSpace=wrap;html=1;" vertex="1" parent="N8BgexTbilIl0n5U3Q86-41">
          <mxGeometry y="176" width="160" height="30" as="geometry" />
        </mxCell>
        <mxCell id="N8BgexTbilIl0n5U3Q86-47" value="(json field) home_config" style="swimlane;fontStyle=0;childLayout=stackLayout;horizontal=1;startSize=26;horizontalStack=0;resizeParent=1;resizeParentMax=0;resizeLast=0;collapsible=1;marginBottom=0;align=center;fontSize=14;" vertex="1" parent="1">
          <mxGeometry x="-690" y="-490" width="210" height="266" as="geometry" />
        </mxCell>
        <mxCell id="N8BgexTbilIl0n5U3Q86-48" value="employee_group (string)" style="text;strokeColor=none;fillColor=none;spacingLeft=4;spacingRight=4;overflow=hidden;rotatable=0;points=[[0,0.5],[1,0.5]];portConstraint=eastwest;fontSize=12;whiteSpace=wrap;html=1;" vertex="1" parent="N8BgexTbilIl0n5U3Q86-47">
          <mxGeometry y="26" width="210" height="30" as="geometry" />
        </mxCell>
        <mxCell id="N8BgexTbilIl0n5U3Q86-49" value="mka (int)" style="text;strokeColor=none;fillColor=none;spacingLeft=4;spacingRight=4;overflow=hidden;rotatable=0;points=[[0,0.5],[1,0.5]];portConstraint=eastwest;fontSize=12;whiteSpace=wrap;html=1;" vertex="1" parent="N8BgexTbilIl0n5U3Q86-47">
          <mxGeometry y="56" width="210" height="30" as="geometry" />
        </mxCell>
        <mxCell id="N8BgexTbilIl0n5U3Q86-50" value="hav (string)" style="text;strokeColor=none;fillColor=none;spacingLeft=4;spacingRight=4;overflow=hidden;rotatable=0;points=[[0,0.5],[1,0.5]];portConstraint=eastwest;fontSize=12;whiteSpace=wrap;html=1;" vertex="1" parent="N8BgexTbilIl0n5U3Q86-47">
          <mxGeometry y="86" width="210" height="30" as="geometry" />
        </mxCell>
        <mxCell id="N8BgexTbilIl0n5U3Q86-57" value="installment (float)" style="text;strokeColor=none;fillColor=none;spacingLeft=4;spacingRight=4;overflow=hidden;rotatable=0;points=[[0,0.5],[1,0.5]];portConstraint=eastwest;fontSize=12;whiteSpace=wrap;html=1;" vertex="1" parent="N8BgexTbilIl0n5U3Q86-47">
          <mxGeometry y="116" width="210" height="30" as="geometry" />
        </mxCell>
        <mxCell id="N8BgexTbilIl0n5U3Q86-62" value="tenor (float)" style="text;strokeColor=none;fillColor=none;spacingLeft=4;spacingRight=4;overflow=hidden;rotatable=0;points=[[0,0.5],[1,0.5]];portConstraint=eastwest;fontSize=12;whiteSpace=wrap;html=1;" vertex="1" parent="N8BgexTbilIl0n5U3Q86-47">
          <mxGeometry y="146" width="210" height="30" as="geometry" />
        </mxCell>
        <mxCell id="N8BgexTbilIl0n5U3Q86-58" value="plafon (float)" style="text;strokeColor=none;fillColor=none;spacingLeft=4;spacingRight=4;overflow=hidden;rotatable=0;points=[[0,0.5],[1,0.5]];portConstraint=eastwest;fontSize=12;whiteSpace=wrap;html=1;" vertex="1" parent="N8BgexTbilIl0n5U3Q86-47">
          <mxGeometry y="176" width="210" height="30" as="geometry" />
        </mxCell>
        <mxCell id="N8BgexTbilIl0n5U3Q86-65" value="can_be_accelerated (boolean)" style="text;strokeColor=none;fillColor=none;spacingLeft=4;spacingRight=4;overflow=hidden;rotatable=0;points=[[0,0.5],[1,0.5]];portConstraint=eastwest;fontSize=12;whiteSpace=wrap;html=1;" vertex="1" parent="N8BgexTbilIl0n5U3Q86-47">
          <mxGeometry y="206" width="210" height="30" as="geometry" />
        </mxCell>
        <mxCell id="N8BgexTbilIl0n5U3Q86-69" value="tujuan (string)" style="text;strokeColor=none;fillColor=none;spacingLeft=4;spacingRight=4;overflow=hidden;rotatable=0;points=[[0,0.5],[1,0.5]];portConstraint=eastwest;fontSize=12;whiteSpace=wrap;html=1;" vertex="1" parent="N8BgexTbilIl0n5U3Q86-47">
          <mxGeometry y="236" width="210" height="30" as="geometry" />
        </mxCell>
        <mxCell id="N8BgexTbilIl0n5U3Q86-52" value="(json field) edu_config" style="swimlane;fontStyle=0;childLayout=stackLayout;horizontal=1;startSize=26;horizontalStack=0;resizeParent=1;resizeParentMax=0;resizeLast=0;collapsible=1;marginBottom=0;align=center;fontSize=14;" vertex="1" parent="1">
          <mxGeometry x="-410" y="-490" width="190" height="356" as="geometry" />
        </mxCell>
        <mxCell id="N8BgexTbilIl0n5U3Q86-56" value="type_edu (string)" style="text;strokeColor=none;fillColor=none;spacingLeft=4;spacingRight=4;overflow=hidden;rotatable=0;points=[[0,0.5],[1,0.5]];portConstraint=eastwest;fontSize=12;whiteSpace=wrap;html=1;" vertex="1" parent="N8BgexTbilIl0n5U3Q86-52">
          <mxGeometry y="26" width="190" height="30" as="geometry" />
        </mxCell>
        <mxCell id="N8BgexTbilIl0n5U3Q86-53" value="employee_group (string)" style="text;strokeColor=none;fillColor=none;spacingLeft=4;spacingRight=4;overflow=hidden;rotatable=0;points=[[0,0.5],[1,0.5]];portConstraint=eastwest;fontSize=12;whiteSpace=wrap;html=1;" vertex="1" parent="N8BgexTbilIl0n5U3Q86-52">
          <mxGeometry y="56" width="190" height="30" as="geometry" />
        </mxCell>
        <mxCell id="N8BgexTbilIl0n5U3Q86-54" value="mka (int)" style="text;strokeColor=none;fillColor=none;spacingLeft=4;spacingRight=4;overflow=hidden;rotatable=0;points=[[0,0.5],[1,0.5]];portConstraint=eastwest;fontSize=12;whiteSpace=wrap;html=1;" vertex="1" parent="N8BgexTbilIl0n5U3Q86-52">
          <mxGeometry y="86" width="190" height="30" as="geometry" />
        </mxCell>
        <mxCell id="N8BgexTbilIl0n5U3Q86-55" value="hav (string)" style="text;strokeColor=none;fillColor=none;spacingLeft=4;spacingRight=4;overflow=hidden;rotatable=0;points=[[0,0.5],[1,0.5]];portConstraint=eastwest;fontSize=12;whiteSpace=wrap;html=1;" vertex="1" parent="N8BgexTbilIl0n5U3Q86-52">
          <mxGeometry y="116" width="190" height="30" as="geometry" />
        </mxCell>
        <mxCell id="N8BgexTbilIl0n5U3Q86-70" value="installment (float)" style="text;strokeColor=none;fillColor=none;spacingLeft=4;spacingRight=4;overflow=hidden;rotatable=0;points=[[0,0.5],[1,0.5]];portConstraint=eastwest;fontSize=12;whiteSpace=wrap;html=1;" vertex="1" parent="N8BgexTbilIl0n5U3Q86-52">
          <mxGeometry y="146" width="190" height="30" as="geometry" />
        </mxCell>
        <mxCell id="N8BgexTbilIl0n5U3Q86-71" value="tenor (float)" style="text;strokeColor=none;fillColor=none;spacingLeft=4;spacingRight=4;overflow=hidden;rotatable=0;points=[[0,0.5],[1,0.5]];portConstraint=eastwest;fontSize=12;whiteSpace=wrap;html=1;" vertex="1" parent="N8BgexTbilIl0n5U3Q86-52">
          <mxGeometry y="176" width="190" height="30" as="geometry" />
        </mxCell>
        <mxCell id="N8BgexTbilIl0n5U3Q86-72" value="plafon (float)" style="text;strokeColor=none;fillColor=none;spacingLeft=4;spacingRight=4;overflow=hidden;rotatable=0;points=[[0,0.5],[1,0.5]];portConstraint=eastwest;fontSize=12;whiteSpace=wrap;html=1;" vertex="1" parent="N8BgexTbilIl0n5U3Q86-52">
          <mxGeometry y="206" width="190" height="30" as="geometry" />
        </mxCell>
        <mxCell id="N8BgexTbilIl0n5U3Q86-73" value="can_be_accelerated (boolean)" style="text;strokeColor=none;fillColor=none;spacingLeft=4;spacingRight=4;overflow=hidden;rotatable=0;points=[[0,0.5],[1,0.5]];portConstraint=eastwest;fontSize=12;whiteSpace=wrap;html=1;" vertex="1" parent="N8BgexTbilIl0n5U3Q86-52">
          <mxGeometry y="236" width="190" height="30" as="geometry" />
        </mxCell>
        <mxCell id="N8BgexTbilIl0n5U3Q86-75" value="education_level (string)" style="text;strokeColor=none;fillColor=none;spacingLeft=4;spacingRight=4;overflow=hidden;rotatable=0;points=[[0,0.5],[1,0.5]];portConstraint=eastwest;fontSize=12;whiteSpace=wrap;html=1;" vertex="1" parent="N8BgexTbilIl0n5U3Q86-52">
          <mxGeometry y="266" width="190" height="30" as="geometry" />
        </mxCell>
        <mxCell id="N8BgexTbilIl0n5U3Q86-76" value="campus_accreditation (string)" style="text;strokeColor=none;fillColor=none;spacingLeft=4;spacingRight=4;overflow=hidden;rotatable=0;points=[[0,0.5],[1,0.5]];portConstraint=eastwest;fontSize=12;whiteSpace=wrap;html=1;" vertex="1" parent="N8BgexTbilIl0n5U3Q86-52">
          <mxGeometry y="296" width="190" height="30" as="geometry" />
        </mxCell>
        <mxCell id="N8BgexTbilIl0n5U3Q86-77" value="department_accreditation (string)" style="text;strokeColor=none;fillColor=none;spacingLeft=4;spacingRight=4;overflow=hidden;rotatable=0;points=[[0,0.5],[1,0.5]];portConstraint=eastwest;fontSize=12;whiteSpace=wrap;html=1;" vertex="1" parent="N8BgexTbilIl0n5U3Q86-52">
          <mxGeometry y="326" width="190" height="30" as="geometry" />
        </mxCell>
        <mxCell id="N8BgexTbilIl0n5U3Q86-79" value="mtd_education_level" style="swimlane;fontStyle=0;childLayout=stackLayout;horizontal=1;startSize=26;horizontalStack=0;resizeParent=1;resizeParentMax=0;resizeLast=0;collapsible=1;marginBottom=0;align=center;fontSize=14;" vertex="1" parent="1">
          <mxGeometry x="-910" y="-490" width="160" height="116" as="geometry" />
        </mxCell>
        <mxCell id="N8BgexTbilIl0n5U3Q86-80" value="Item 1" style="text;strokeColor=none;fillColor=none;spacingLeft=4;spacingRight=4;overflow=hidden;rotatable=0;points=[[0,0.5],[1,0.5]];portConstraint=eastwest;fontSize=12;whiteSpace=wrap;html=1;" vertex="1" parent="N8BgexTbilIl0n5U3Q86-79">
          <mxGeometry y="26" width="160" height="30" as="geometry" />
        </mxCell>
        <mxCell id="N8BgexTbilIl0n5U3Q86-81" value="Item 2" style="text;strokeColor=none;fillColor=none;spacingLeft=4;spacingRight=4;overflow=hidden;rotatable=0;points=[[0,0.5],[1,0.5]];portConstraint=eastwest;fontSize=12;whiteSpace=wrap;html=1;" vertex="1" parent="N8BgexTbilIl0n5U3Q86-79">
          <mxGeometry y="56" width="160" height="30" as="geometry" />
        </mxCell>
        <mxCell id="N8BgexTbilIl0n5U3Q86-82" value="Item 3" style="text;strokeColor=none;fillColor=none;spacingLeft=4;spacingRight=4;overflow=hidden;rotatable=0;points=[[0,0.5],[1,0.5]];portConstraint=eastwest;fontSize=12;whiteSpace=wrap;html=1;" vertex="1" parent="N8BgexTbilIl0n5U3Q86-79">
          <mxGeometry y="86" width="160" height="30" as="geometry" />
        </mxCell>
        <mxCell id="N8BgexTbilIl0n5U3Q86-84" value="(json field) umrah_config" style="swimlane;fontStyle=0;childLayout=stackLayout;horizontal=1;startSize=26;horizontalStack=0;resizeParent=1;resizeParentMax=0;resizeLast=0;collapsible=1;marginBottom=0;align=center;fontSize=14;" vertex="1" parent="1">
          <mxGeometry x="-160" y="-490" width="190" height="266" as="geometry" />
        </mxCell>
        <mxCell id="N8BgexTbilIl0n5U3Q86-86" value="employee_group (string)" style="text;strokeColor=none;fillColor=none;spacingLeft=4;spacingRight=4;overflow=hidden;rotatable=0;points=[[0,0.5],[1,0.5]];portConstraint=eastwest;fontSize=12;whiteSpace=wrap;html=1;" vertex="1" parent="N8BgexTbilIl0n5U3Q86-84">
          <mxGeometry y="26" width="190" height="30" as="geometry" />
        </mxCell>
        <mxCell id="N8BgexTbilIl0n5U3Q86-87" value="mka (int)" style="text;strokeColor=none;fillColor=none;spacingLeft=4;spacingRight=4;overflow=hidden;rotatable=0;points=[[0,0.5],[1,0.5]];portConstraint=eastwest;fontSize=12;whiteSpace=wrap;html=1;" vertex="1" parent="N8BgexTbilIl0n5U3Q86-84">
          <mxGeometry y="56" width="190" height="30" as="geometry" />
        </mxCell>
        <mxCell id="N8BgexTbilIl0n5U3Q86-88" value="hav (string)" style="text;strokeColor=none;fillColor=none;spacingLeft=4;spacingRight=4;overflow=hidden;rotatable=0;points=[[0,0.5],[1,0.5]];portConstraint=eastwest;fontSize=12;whiteSpace=wrap;html=1;" vertex="1" parent="N8BgexTbilIl0n5U3Q86-84">
          <mxGeometry y="86" width="190" height="30" as="geometry" />
        </mxCell>
        <mxCell id="N8BgexTbilIl0n5U3Q86-90" value="tenor (float)" style="text;strokeColor=none;fillColor=none;spacingLeft=4;spacingRight=4;overflow=hidden;rotatable=0;points=[[0,0.5],[1,0.5]];portConstraint=eastwest;fontSize=12;whiteSpace=wrap;html=1;" vertex="1" parent="N8BgexTbilIl0n5U3Q86-84">
          <mxGeometry y="116" width="190" height="30" as="geometry" />
        </mxCell>
        <mxCell id="N8BgexTbilIl0n5U3Q86-92" value="can_be_accelerated (boolean)" style="text;strokeColor=none;fillColor=none;spacingLeft=4;spacingRight=4;overflow=hidden;rotatable=0;points=[[0,0.5],[1,0.5]];portConstraint=eastwest;fontSize=12;whiteSpace=wrap;html=1;" vertex="1" parent="N8BgexTbilIl0n5U3Q86-84">
          <mxGeometry y="146" width="190" height="30" as="geometry" />
        </mxCell>
        <mxCell id="N8BgexTbilIl0n5U3Q86-93" value="total_person (int)" style="text;strokeColor=none;fillColor=none;spacingLeft=4;spacingRight=4;overflow=hidden;rotatable=0;points=[[0,0.5],[1,0.5]];portConstraint=eastwest;fontSize=12;whiteSpace=wrap;html=1;" vertex="1" parent="N8BgexTbilIl0n5U3Q86-84">
          <mxGeometry y="176" width="190" height="30" as="geometry" />
        </mxCell>
        <mxCell id="N8BgexTbilIl0n5U3Q86-128" value="package_umrah&lt;span style=&quot;background-color: transparent; color: light-dark(rgb(0, 0, 0), rgb(255, 255, 255));&quot;&gt;&amp;nbsp;(json)&lt;/span&gt;" style="text;strokeColor=none;fillColor=none;spacingLeft=4;spacingRight=4;overflow=hidden;rotatable=0;points=[[0,0.5],[1,0.5]];portConstraint=eastwest;fontSize=12;whiteSpace=wrap;html=1;" vertex="1" parent="N8BgexTbilIl0n5U3Q86-84">
          <mxGeometry y="206" width="190" height="30" as="geometry" />
        </mxCell>
        <mxCell id="N8BgexTbilIl0n5U3Q86-151" value="departure_date&lt;span style=&quot;background-color: transparent; color: light-dark(rgb(0, 0, 0), rgb(255, 255, 255));&quot;&gt;&amp;nbsp;(json)&lt;/span&gt;" style="text;strokeColor=none;fillColor=none;spacingLeft=4;spacingRight=4;overflow=hidden;rotatable=0;points=[[0,0.5],[1,0.5]];portConstraint=eastwest;fontSize=12;whiteSpace=wrap;html=1;" vertex="1" parent="N8BgexTbilIl0n5U3Q86-84">
          <mxGeometry y="236" width="190" height="30" as="geometry" />
        </mxCell>
        <mxCell id="N8BgexTbilIl0n5U3Q86-96" value="(json field) pilgrimage_cofig" style="swimlane;fontStyle=0;childLayout=stackLayout;horizontal=1;startSize=26;horizontalStack=0;resizeParent=1;resizeParentMax=0;resizeLast=0;collapsible=1;marginBottom=0;align=center;fontSize=14;" vertex="1" parent="1">
          <mxGeometry x="100" y="-490" width="190" height="206" as="geometry" />
        </mxCell>
        <mxCell id="N8BgexTbilIl0n5U3Q86-97" value="employee_group (string)" style="text;strokeColor=none;fillColor=none;spacingLeft=4;spacingRight=4;overflow=hidden;rotatable=0;points=[[0,0.5],[1,0.5]];portConstraint=eastwest;fontSize=12;whiteSpace=wrap;html=1;" vertex="1" parent="N8BgexTbilIl0n5U3Q86-96">
          <mxGeometry y="26" width="190" height="30" as="geometry" />
        </mxCell>
        <mxCell id="N8BgexTbilIl0n5U3Q86-98" value="mka (int)" style="text;strokeColor=none;fillColor=none;spacingLeft=4;spacingRight=4;overflow=hidden;rotatable=0;points=[[0,0.5],[1,0.5]];portConstraint=eastwest;fontSize=12;whiteSpace=wrap;html=1;" vertex="1" parent="N8BgexTbilIl0n5U3Q86-96">
          <mxGeometry y="56" width="190" height="30" as="geometry" />
        </mxCell>
        <mxCell id="N8BgexTbilIl0n5U3Q86-99" value="hav (string)" style="text;strokeColor=none;fillColor=none;spacingLeft=4;spacingRight=4;overflow=hidden;rotatable=0;points=[[0,0.5],[1,0.5]];portConstraint=eastwest;fontSize=12;whiteSpace=wrap;html=1;" vertex="1" parent="N8BgexTbilIl0n5U3Q86-96">
          <mxGeometry y="86" width="190" height="30" as="geometry" />
        </mxCell>
        <mxCell id="N8BgexTbilIl0n5U3Q86-101" value="tenor (float)" style="text;strokeColor=none;fillColor=none;spacingLeft=4;spacingRight=4;overflow=hidden;rotatable=0;points=[[0,0.5],[1,0.5]];portConstraint=eastwest;fontSize=12;whiteSpace=wrap;html=1;" vertex="1" parent="N8BgexTbilIl0n5U3Q86-96">
          <mxGeometry y="116" width="190" height="30" as="geometry" />
        </mxCell>
        <mxCell id="N8BgexTbilIl0n5U3Q86-102" value="can_be_accelerated (boolean)" style="text;strokeColor=none;fillColor=none;spacingLeft=4;spacingRight=4;overflow=hidden;rotatable=0;points=[[0,0.5],[1,0.5]];portConstraint=eastwest;fontSize=12;whiteSpace=wrap;html=1;" vertex="1" parent="N8BgexTbilIl0n5U3Q86-96">
          <mxGeometry y="146" width="190" height="30" as="geometry" />
        </mxCell>
        <mxCell id="N8BgexTbilIl0n5U3Q86-103" value="total_person (int)" style="text;strokeColor=none;fillColor=none;spacingLeft=4;spacingRight=4;overflow=hidden;rotatable=0;points=[[0,0.5],[1,0.5]];portConstraint=eastwest;fontSize=12;whiteSpace=wrap;html=1;" vertex="1" parent="N8BgexTbilIl0n5U3Q86-96">
          <mxGeometry y="176" width="190" height="30" as="geometry" />
        </mxCell>
        <mxCell id="N8BgexTbilIl0n5U3Q86-104" value="(json field) hajj_cofig" style="swimlane;fontStyle=0;childLayout=stackLayout;horizontal=1;startSize=26;horizontalStack=0;resizeParent=1;resizeParentMax=0;resizeLast=0;collapsible=1;marginBottom=0;align=center;fontSize=14;" vertex="1" parent="1">
          <mxGeometry x="350" y="-490" width="190" height="206" as="geometry" />
        </mxCell>
        <mxCell id="N8BgexTbilIl0n5U3Q86-105" value="employee_group (string)" style="text;strokeColor=none;fillColor=none;spacingLeft=4;spacingRight=4;overflow=hidden;rotatable=0;points=[[0,0.5],[1,0.5]];portConstraint=eastwest;fontSize=12;whiteSpace=wrap;html=1;" vertex="1" parent="N8BgexTbilIl0n5U3Q86-104">
          <mxGeometry y="26" width="190" height="30" as="geometry" />
        </mxCell>
        <mxCell id="N8BgexTbilIl0n5U3Q86-106" value="mka (int)" style="text;strokeColor=none;fillColor=none;spacingLeft=4;spacingRight=4;overflow=hidden;rotatable=0;points=[[0,0.5],[1,0.5]];portConstraint=eastwest;fontSize=12;whiteSpace=wrap;html=1;" vertex="1" parent="N8BgexTbilIl0n5U3Q86-104">
          <mxGeometry y="56" width="190" height="30" as="geometry" />
        </mxCell>
        <mxCell id="N8BgexTbilIl0n5U3Q86-107" value="hav (string)" style="text;strokeColor=none;fillColor=none;spacingLeft=4;spacingRight=4;overflow=hidden;rotatable=0;points=[[0,0.5],[1,0.5]];portConstraint=eastwest;fontSize=12;whiteSpace=wrap;html=1;" vertex="1" parent="N8BgexTbilIl0n5U3Q86-104">
          <mxGeometry y="86" width="190" height="30" as="geometry" />
        </mxCell>
        <mxCell id="N8BgexTbilIl0n5U3Q86-109" value="tenor (float)" style="text;strokeColor=none;fillColor=none;spacingLeft=4;spacingRight=4;overflow=hidden;rotatable=0;points=[[0,0.5],[1,0.5]];portConstraint=eastwest;fontSize=12;whiteSpace=wrap;html=1;" vertex="1" parent="N8BgexTbilIl0n5U3Q86-104">
          <mxGeometry y="116" width="190" height="30" as="geometry" />
        </mxCell>
        <mxCell id="N8BgexTbilIl0n5U3Q86-110" value="can_be_accelerated (boolean)" style="text;strokeColor=none;fillColor=none;spacingLeft=4;spacingRight=4;overflow=hidden;rotatable=0;points=[[0,0.5],[1,0.5]];portConstraint=eastwest;fontSize=12;whiteSpace=wrap;html=1;" vertex="1" parent="N8BgexTbilIl0n5U3Q86-104">
          <mxGeometry y="146" width="190" height="30" as="geometry" />
        </mxCell>
        <mxCell id="N8BgexTbilIl0n5U3Q86-111" value="total_person (int)" style="text;strokeColor=none;fillColor=none;spacingLeft=4;spacingRight=4;overflow=hidden;rotatable=0;points=[[0,0.5],[1,0.5]];portConstraint=eastwest;fontSize=12;whiteSpace=wrap;html=1;" vertex="1" parent="N8BgexTbilIl0n5U3Q86-104">
          <mxGeometry y="176" width="190" height="30" as="geometry" />
        </mxCell>
        <mxCell id="N8BgexTbilIl0n5U3Q86-112" value="(json field) cop_cofig" style="swimlane;fontStyle=0;childLayout=stackLayout;horizontal=1;startSize=26;horizontalStack=0;resizeParent=1;resizeParentMax=0;resizeLast=0;collapsible=1;marginBottom=0;align=center;fontSize=14;" vertex="1" parent="1">
          <mxGeometry x="590" y="-490" width="190" height="236" as="geometry" />
        </mxCell>
        <mxCell id="N8BgexTbilIl0n5U3Q86-113" value="employee_group (string)" style="text;strokeColor=none;fillColor=none;spacingLeft=4;spacingRight=4;overflow=hidden;rotatable=0;points=[[0,0.5],[1,0.5]];portConstraint=eastwest;fontSize=12;whiteSpace=wrap;html=1;" vertex="1" parent="N8BgexTbilIl0n5U3Q86-112">
          <mxGeometry y="26" width="190" height="30" as="geometry" />
        </mxCell>
        <mxCell id="N8BgexTbilIl0n5U3Q86-114" value="mka (int)" style="text;strokeColor=none;fillColor=none;spacingLeft=4;spacingRight=4;overflow=hidden;rotatable=0;points=[[0,0.5],[1,0.5]];portConstraint=eastwest;fontSize=12;whiteSpace=wrap;html=1;" vertex="1" parent="N8BgexTbilIl0n5U3Q86-112">
          <mxGeometry y="56" width="190" height="30" as="geometry" />
        </mxCell>
        <mxCell id="N8BgexTbilIl0n5U3Q86-119" value="position_level (int)" style="text;strokeColor=none;fillColor=none;spacingLeft=4;spacingRight=4;overflow=hidden;rotatable=0;points=[[0,0.5],[1,0.5]];portConstraint=eastwest;fontSize=12;whiteSpace=wrap;html=1;" vertex="1" parent="N8BgexTbilIl0n5U3Q86-112">
          <mxGeometry y="86" width="190" height="30" as="geometry" />
        </mxCell>
        <mxCell id="N8BgexTbilIl0n5U3Q86-116" value="tenor (float)" style="text;strokeColor=none;fillColor=none;spacingLeft=4;spacingRight=4;overflow=hidden;rotatable=0;points=[[0,0.5],[1,0.5]];portConstraint=eastwest;fontSize=12;whiteSpace=wrap;html=1;" vertex="1" parent="N8BgexTbilIl0n5U3Q86-112">
          <mxGeometry y="116" width="190" height="30" as="geometry" />
        </mxCell>
        <mxCell id="N8BgexTbilIl0n5U3Q86-120" value="plafon (int)" style="text;strokeColor=none;fillColor=none;spacingLeft=4;spacingRight=4;overflow=hidden;rotatable=0;points=[[0,0.5],[1,0.5]];portConstraint=eastwest;fontSize=12;whiteSpace=wrap;html=1;" vertex="1" parent="N8BgexTbilIl0n5U3Q86-112">
          <mxGeometry y="146" width="190" height="30" as="geometry" />
        </mxCell>
        <mxCell id="N8BgexTbilIl0n5U3Q86-117" value="can_be_accelerated (boolean)" style="text;strokeColor=none;fillColor=none;spacingLeft=4;spacingRight=4;overflow=hidden;rotatable=0;points=[[0,0.5],[1,0.5]];portConstraint=eastwest;fontSize=12;whiteSpace=wrap;html=1;" vertex="1" parent="N8BgexTbilIl0n5U3Q86-112">
          <mxGeometry y="176" width="190" height="30" as="geometry" />
        </mxCell>
        <mxCell id="N8BgexTbilIl0n5U3Q86-118" value="bank (string)" style="text;strokeColor=none;fillColor=none;spacingLeft=4;spacingRight=4;overflow=hidden;rotatable=0;points=[[0,0.5],[1,0.5]];portConstraint=eastwest;fontSize=12;whiteSpace=wrap;html=1;" vertex="1" parent="N8BgexTbilIl0n5U3Q86-112">
          <mxGeometry y="206" width="190" height="30" as="geometry" />
        </mxCell>
        <mxCell id="N8BgexTbilIl0n5U3Q86-121" value="(json field) package_umrah" style="swimlane;fontStyle=0;childLayout=stackLayout;horizontal=1;startSize=26;horizontalStack=0;resizeParent=1;resizeParentMax=0;resizeLast=0;collapsible=1;marginBottom=0;align=center;fontSize=14;" vertex="1" parent="1">
          <mxGeometry x="-400" y="-750" width="270" height="176" as="geometry" />
        </mxCell>
        <mxCell id="N8BgexTbilIl0n5U3Q86-122" value="package_name (string)" style="text;strokeColor=none;fillColor=none;spacingLeft=4;spacingRight=4;overflow=hidden;rotatable=0;points=[[0,0.5],[1,0.5]];portConstraint=eastwest;fontSize=12;whiteSpace=wrap;html=1;" vertex="1" parent="N8BgexTbilIl0n5U3Q86-121">
          <mxGeometry y="26" width="270" height="30" as="geometry" />
        </mxCell>
        <mxCell id="N8BgexTbilIl0n5U3Q86-123" value="description (string)" style="text;strokeColor=none;fillColor=none;spacingLeft=4;spacingRight=4;overflow=hidden;rotatable=0;points=[[0,0.5],[1,0.5]];portConstraint=eastwest;fontSize=12;whiteSpace=wrap;html=1;" vertex="1" parent="N8BgexTbilIl0n5U3Q86-121">
          <mxGeometry y="56" width="270" height="30" as="geometry" />
        </mxCell>
        <mxCell id="N8BgexTbilIl0n5U3Q86-124" value="route (string)" style="text;strokeColor=none;fillColor=none;spacingLeft=4;spacingRight=4;overflow=hidden;rotatable=0;points=[[0,0.5],[1,0.5]];portConstraint=eastwest;fontSize=12;whiteSpace=wrap;html=1;" vertex="1" parent="N8BgexTbilIl0n5U3Q86-121">
          <mxGeometry y="86" width="270" height="30" as="geometry" />
        </mxCell>
        <mxCell id="N8BgexTbilIl0n5U3Q86-127" value="flayer_image (string)" style="text;strokeColor=none;fillColor=none;spacingLeft=4;spacingRight=4;overflow=hidden;rotatable=0;points=[[0,0.5],[1,0.5]];portConstraint=eastwest;fontSize=12;whiteSpace=wrap;html=1;" vertex="1" parent="N8BgexTbilIl0n5U3Q86-121">
          <mxGeometry y="116" width="270" height="30" as="geometry" />
        </mxCell>
        <mxCell id="N8BgexTbilIl0n5U3Q86-129" value="class_room_konsesiprice_fullprice (json)" style="text;strokeColor=none;fillColor=none;spacingLeft=4;spacingRight=4;overflow=hidden;rotatable=0;points=[[0,0.5],[1,0.5]];portConstraint=eastwest;fontSize=12;whiteSpace=wrap;html=1;" vertex="1" parent="N8BgexTbilIl0n5U3Q86-121">
          <mxGeometry y="146" width="270" height="30" as="geometry" />
        </mxCell>
        <mxCell id="N8BgexTbilIl0n5U3Q86-130" value="(json field) class_room_konsesiprice_fullprice" style="swimlane;fontStyle=0;childLayout=stackLayout;horizontal=1;startSize=26;horizontalStack=0;resizeParent=1;resizeParentMax=0;resizeLast=0;collapsible=1;marginBottom=0;align=center;fontSize=14;" vertex="1" parent="1">
          <mxGeometry x="-790" y="-750" width="325" height="146" as="geometry" />
        </mxCell>
        <mxCell id="N8BgexTbilIl0n5U3Q86-131" value="class (string)" style="text;strokeColor=none;fillColor=none;spacingLeft=4;spacingRight=4;overflow=hidden;rotatable=0;points=[[0,0.5],[1,0.5]];portConstraint=eastwest;fontSize=12;whiteSpace=wrap;html=1;" vertex="1" parent="N8BgexTbilIl0n5U3Q86-130">
          <mxGeometry y="26" width="325" height="30" as="geometry" />
        </mxCell>
        <mxCell id="N8BgexTbilIl0n5U3Q86-132" value="room (string)" style="text;strokeColor=none;fillColor=none;spacingLeft=4;spacingRight=4;overflow=hidden;rotatable=0;points=[[0,0.5],[1,0.5]];portConstraint=eastwest;fontSize=12;whiteSpace=wrap;html=1;" vertex="1" parent="N8BgexTbilIl0n5U3Q86-130">
          <mxGeometry y="56" width="325" height="30" as="geometry" />
        </mxCell>
        <mxCell id="N8BgexTbilIl0n5U3Q86-133" value="konsesi_price (string)" style="text;strokeColor=none;fillColor=none;spacingLeft=4;spacingRight=4;overflow=hidden;rotatable=0;points=[[0,0.5],[1,0.5]];portConstraint=eastwest;fontSize=12;whiteSpace=wrap;html=1;" vertex="1" parent="N8BgexTbilIl0n5U3Q86-130">
          <mxGeometry y="86" width="325" height="30" as="geometry" />
        </mxCell>
        <mxCell id="N8BgexTbilIl0n5U3Q86-134" value="full_price (string)" style="text;strokeColor=none;fillColor=none;spacingLeft=4;spacingRight=4;overflow=hidden;rotatable=0;points=[[0,0.5],[1,0.5]];portConstraint=eastwest;fontSize=12;whiteSpace=wrap;html=1;" vertex="1" parent="N8BgexTbilIl0n5U3Q86-130">
          <mxGeometry y="116" width="325" height="30" as="geometry" />
        </mxCell>
        <mxCell id="N8BgexTbilIl0n5U3Q86-138" value="" style="edgeStyle=entityRelationEdgeStyle;fontSize=12;html=1;endArrow=ERoneToMany;rounded=0;exitX=0;exitY=0.5;exitDx=0;exitDy=0;entryX=1;entryY=0.088;entryDx=0;entryDy=0;entryPerimeter=0;" edge="1" parent="1" source="N8BgexTbilIl0n5U3Q86-129" target="N8BgexTbilIl0n5U3Q86-130">
          <mxGeometry width="100" height="100" relative="1" as="geometry">
            <mxPoint x="-640" y="-740" as="sourcePoint" />
            <mxPoint x="-540" y="-840" as="targetPoint" />
          </mxGeometry>
        </mxCell>
        <mxCell id="N8BgexTbilIl0n5U3Q86-143" value="" style="edgeStyle=entityRelationEdgeStyle;fontSize=12;html=1;endArrow=ERmandOne;startArrow=ERmandOne;rounded=0;exitX=-0.016;exitY=0.069;exitDx=0;exitDy=0;exitPerimeter=0;entryX=0;entryY=0.5;entryDx=0;entryDy=0;" edge="1" parent="1" source="N8BgexTbilIl0n5U3Q86-84" target="N8BgexTbilIl0n5U3Q86-23">
          <mxGeometry width="100" height="100" relative="1" as="geometry">
            <mxPoint x="-180" y="-280" as="sourcePoint" />
            <mxPoint x="-133" y="-60" as="targetPoint" />
          </mxGeometry>
        </mxCell>
        <mxCell id="N8BgexTbilIl0n5U3Q86-147" value="" style="edgeStyle=entityRelationEdgeStyle;fontSize=12;html=1;endArrow=ERmandOne;startArrow=ERmandOne;rounded=0;entryX=1.002;entryY=0.064;entryDx=0;entryDy=0;entryPerimeter=0;exitX=0;exitY=0.5;exitDx=0;exitDy=0;" edge="1" parent="1" source="N8BgexTbilIl0n5U3Q86-32" target="N8BgexTbilIl0n5U3Q86-47">
          <mxGeometry width="100" height="100" relative="1" as="geometry">
            <mxPoint x="-760" y="-80" as="sourcePoint" />
            <mxPoint x="-660" y="-180" as="targetPoint" />
          </mxGeometry>
        </mxCell>
        <mxCell id="N8BgexTbilIl0n5U3Q86-149" value="" style="edgeStyle=entityRelationEdgeStyle;fontSize=12;html=1;endArrow=ERoneToMany;rounded=0;exitX=0;exitY=0.5;exitDx=0;exitDy=0;entryX=-0.004;entryY=0.038;entryDx=0;entryDy=0;entryPerimeter=0;" edge="1" parent="1" source="N8BgexTbilIl0n5U3Q86-24" target="N8BgexTbilIl0n5U3Q86-52">
          <mxGeometry width="100" height="100" relative="1" as="geometry">
            <mxPoint x="-10" y="-10" as="sourcePoint" />
            <mxPoint x="90" y="-110" as="targetPoint" />
          </mxGeometry>
        </mxCell>
        <mxCell id="N8BgexTbilIl0n5U3Q86-159" value="" style="edgeStyle=entityRelationEdgeStyle;fontSize=12;html=1;endArrow=ERmandOne;startArrow=ERmandOne;rounded=0;" edge="1" parent="1">
          <mxGeometry width="100" height="100" relative="1" as="geometry">
            <mxPoint x="150" y="-480" as="sourcePoint" />
            <mxPoint x="250" y="-580" as="targetPoint" />
          </mxGeometry>
        </mxCell>
        <mxCell id="N8BgexTbilIl0n5U3Q86-152" value="(json field) departure_date" style="swimlane;fontStyle=0;childLayout=stackLayout;horizontal=1;startSize=26;horizontalStack=0;resizeParent=1;resizeParentMax=0;resizeLast=0;collapsible=1;marginBottom=0;align=center;fontSize=14;" vertex="1" parent="1">
          <mxGeometry x="50" y="-810" width="270" height="86" as="geometry" />
        </mxCell>
        <mxCell id="N8BgexTbilIl0n5U3Q86-153" value="from (string)" style="text;strokeColor=none;fillColor=none;spacingLeft=4;spacingRight=4;overflow=hidden;rotatable=0;points=[[0,0.5],[1,0.5]];portConstraint=eastwest;fontSize=12;whiteSpace=wrap;html=1;" vertex="1" parent="N8BgexTbilIl0n5U3Q86-152">
          <mxGeometry y="26" width="270" height="30" as="geometry" />
        </mxCell>
        <mxCell id="N8BgexTbilIl0n5U3Q86-154" value="until (string)" style="text;strokeColor=none;fillColor=none;spacingLeft=4;spacingRight=4;overflow=hidden;rotatable=0;points=[[0,0.5],[1,0.5]];portConstraint=eastwest;fontSize=12;whiteSpace=wrap;html=1;" vertex="1" parent="N8BgexTbilIl0n5U3Q86-152">
          <mxGeometry y="56" width="270" height="30" as="geometry" />
        </mxCell>
        <mxCell id="N8BgexTbilIl0n5U3Q86-162" value="" style="edgeStyle=entityRelationEdgeStyle;fontSize=12;html=1;endArrow=ERoneToMany;rounded=0;exitX=1;exitY=0.5;exitDx=0;exitDy=0;entryX=0.001;entryY=0.123;entryDx=0;entryDy=0;entryPerimeter=0;" edge="1" parent="1" source="N8BgexTbilIl0n5U3Q86-151" target="N8BgexTbilIl0n5U3Q86-152">
          <mxGeometry width="100" height="100" relative="1" as="geometry">
            <mxPoint x="20" y="-460" as="sourcePoint" />
            <mxPoint x="120" y="-560" as="targetPoint" />
          </mxGeometry>
        </mxCell>
        <mxCell id="N8BgexTbilIl0n5U3Q86-164" value="" style="edgeStyle=entityRelationEdgeStyle;fontSize=12;html=1;endArrow=ERmandOne;startArrow=ERmandOne;rounded=0;exitX=1;exitY=0.5;exitDx=0;exitDy=0;entryX=1.001;entryY=0.083;entryDx=0;entryDy=0;entryPerimeter=0;" edge="1" parent="1" source="N8BgexTbilIl0n5U3Q86-128" target="N8BgexTbilIl0n5U3Q86-121">
          <mxGeometry width="100" height="100" relative="1" as="geometry">
            <mxPoint x="20" y="-460" as="sourcePoint" />
            <mxPoint x="-80" y="-760" as="targetPoint" />
          </mxGeometry>
        </mxCell>
      </root>
    </mxGraphModel>
  </diagram>
</mxfile>
